{
  "accessors": [
    {
      "bufferView": 2,
      "componentType": 5126,
      "count": 8685,
      "max": [
        0.09333500266075134,
        0.7169430255889893,
        -17.37213897705078
      ],
      "min": [
        -5.647617816925049,
        -5.003184795379639,
        -26.964017868041992
      ],
      "type": "VEC3"
    },
    {
      "bufferView": 2,
      "byteOffset": 104220,
      "componentType": 5126,
      "count": 8685,
      "max": [
        0.9995308518409729,
        0.9995426535606384,
        1.0
      ],
      "min": [
        -0.9995338916778564,
        -0.9997593760490417,
        -1.0
      ],
      "type": "VEC3"
    },
    {
      "bufferView": 3,
      "componentType": 5126,
      "count": 8685,
      "max": [
        0.9991216063499451,
        0.9994827508926392,
        0.9999982118606567,
        1.0
      ],
      "min": [
        -0.9984701871871948,
        -0.9992678165435791,
        -0.9999983310699463,
        -1.0
      ],
      "type": "VEC4"
    },
    {
      "bufferView": 1,
      "componentType": 5126,
      "count": 8685,
      "max": [
        0.9832490086555481,
        0.9661300182342529
      ],
      "min": [
        0.021663999184966087,
        0.01619799993932247
      ],
      "type": "VEC2"
    },
    {
      "bufferView": 0,
      "componentType": 5125,
      "count": 35640,
      "type": "SCALAR"
    },
    {
      "bufferView": 2,
      "byteOffset": 208440,
      "componentType": 5126,
      "count": 6199,
      "max": [
        -0.47948500514030457,
        -1.2478770017623901,
        -17.436798095703125
      ],
      "min": [
        -2.586555004119873,
        -5.586936950683594,
        -24.16448211669922
      ],
      "type": "VEC3"
    },
    {
      "bufferView": 2,
      "byteOffset": 282828,
      "componentType": 5126,
      "count": 6199,
      "max": [
        0.9997968673706055,
        0.9971794486045837,
        0.9961729049682617
      ],
      "min": [
        -0.999667763710022,
        -0.9999946355819702,
        -0.9976828694343567
      ],
      "type": "VEC3"
    },
    {
      "bufferView": 3,
      "byteOffset": 138960,
      "componentType": 5126,
      "count": 6199,
      "max": [
        0.9992015957832336,
        0.9999033212661743,
        0.9997195601463318,
        1.0
      ],
      "min": [
        -0.9991034865379333,
        -0.9999956488609314,
        -0.9999934434890747,
        -1.0
      ],
      "type": "VEC4"
    },
    {
      "bufferView": 1,
      "byteOffset": 69480,
      "componentType": 5126,
      "count": 6199,
      "max": [
        0.9649500250816345,
        0.9894790053367615
      ],
      "min": [
        0.02135300077497959,
        0.019807999953627586
      ],
      "type": "VEC2"
    },
    {
      "bufferView": 0,
      "byteOffset": 142560,
      "componentType": 5125,
      "count": 31398,
      "type": "SCALAR"
    }
  ],
  "asset": {
    "extras": {
      "author": "snjvsngh_negi (https://sketchfab.com/snjvsngh_negi)",
      "license": "CC-BY-4.0 (http://creativecommons.org/licenses/by/4.0/)",
      "source": "https://sketchfab.com/3d-models/chained-feet-27583fdaacbd461d85a0859c793f78a7",
      "title": "chained_feet"
    },
    "generator": "Sketchfab-12.68.0",
    "version": "2.0"
  },
  "bufferViews": [
    {
      "buffer": 0,
      "byteLength": 268152,
      "name": "floatBufferViews",
      "target": 34963
    },
    {
      "buffer": 0,
      "byteLength": 119072,
      "byteOffset": 268152,
      "byteStride": 8,
      "name": "floatBufferViews",
      "target": 34962
    },
    {
      "buffer": 0,
      "byteLength": 357216,
      "byteOffset": 387224,
      "byteStride": 12,
      "name": "floatBufferViews",
      "target": 34962
    },
    {
      "buffer": 0,
      "byteLength": 238144,
      "byteOffset": 744440,
      "byteStride": 16,
      "name": "floatBufferViews",
      "target": 34962
    }
  ],
  "buffers": [
    {
      "byteLength": 982584,
      "uri": "scene.bin"
    }
  ],
  "images": [
    {
      "uri": "textures/initialShadingGroup_baseColor.jpeg"
    },
    {
      "uri": "textures/initialShadingGroup_metallicRoughness.png"
    },
    {
      "uri": "textures/initialShadingGroup_normal.jpeg"
    }
  ],
  "materials": [
    {
      "doubleSided": true,
      "name": "initialShadingGroup",
      "normalTexture": {
        "index": 2
      },
      "occlusionTexture": {
        "index": 1
      },
      "pbrMetallicRoughness": {
        "baseColorTexture": {
          "index": 0
        },
        "metallicFactor": 0.0,
        "metallicRoughnessTexture": {
          "index": 1
        },
        "roughnessFactor": 0.09899281931549411
      }
    }
  ],
  "meshes": [
    {
      "name": "Object_0",
      "primitives": [
        {
          "attributes": {
            "NORMAL": 1,
            "POSITION": 0,
            "TANGENT": 2,
            "TEXCOORD_0": 3
          },
          "indices": 4,
          "material": 0,
          "mode": 4
        }
      ]
    },
    {
      "name": "Object_1",
      "primitives": [
        {
          "attributes": {
            "NORMAL": 6,
            "POSITION": 5,
            "TANGENT": 7,
            "TEXCOORD_0": 8
          },
          "indices": 9,
          "material": 0,
          "mode": 4
        }
      ]
    }
  ],
  "nodes": [
    {
      "children": [
        1
      ],
      "matrix": [
        1.0,
        0.0,
        0.0,
        0.0,
        0.0,
        2.220446049250313e-16,
        -1.0,
        0.0,
        0.0,
        1.0,
        2.220446049250313e-16,
        0.0,
        0.0,
        0.0,
        0.0,
        1.0
      ],
      "name": "Sketchfab_model"
    },
    {
      "children": [
        2,
        3
      ],
      "name": "chained_feet.obj.cleaner.materialmerger.gles"
    },
    {
      "mesh": 0,
      "name": "Object_2"
    },
    {
      "mesh": 1,
      "name": "Object_3"
    }
  ],
  "samplers": [
    {
      "magFilter": 9729,
      "minFilter": 9987,
      "wrapS": 10497,
      "wrapT": 10497
    }
  ],
  "scene": 0,
  "scenes": [
    {
      "name": "Sketchfab_Scene",
      "nodes": [
        0
      ]
    }
  ],
  "textures": [
    {
      "sampler": 0,
      "source": 0
    },
    {
      "sampler": 0,
      "source": 1
    },
    {
      "sampler": 0,
      "source": 2
    }
  ]
}
