# Simple 4-vertex pyramid with UV coordinates and normals
mtllib tetrahedron.mtl

o Tetrahedron

# --------------------------------------------------
# Vertex positions
# --------------------------------------------------

v  1.0 0.0 0.0
v  -1.0 0.0 1.0
v  -1.0 0.0 -1.0
v  0.0 2.0  0.0


# --------------------------------------------------
# Normals
# --------------------------------------------------

vn 0.0 -1.0 0.0
vn 0.4364 0.218 0.872
vn -0.894 0.447 0.0
vn 0.436 0.218 -0.872

##
## VT and faces
##

vt 0.0 0.0
vt 1.0 0.0
vt 1.0 1.0
vt 0.0 1.0
vt 0.5 0.5

# Material
usemtl TetrahedronMaterial

f 1/2/1 2/3/1 3/5/1

f 1/2/2 4/5/2 2/1/2
f 2/5/3 4/4/3 3/1/3
f 1/3/4 3/4/4 4/5/4


